HIERARCHY
ROOT Hips
{
  OFFSET -31.5692 30.0904 122.763
  CHANNELS 6 Xposition Yposition Zposition Zrotation Xrotation Yrotation
  JOINT LeftUpLeg
  {
    OFFSET 8.64259 1.95398 -2.38835
    CHANNELS 3 Zrotation Xrotation Yrotation
    JOINT LeftLeg
    {
      OFFSET 43.7702 0 0
      CHANNELS 3 Zrotation Xrotation Yrotation
      JOINT LeftFoot
      {
        OFFSET 40.6238 0 0
        CHANNELS 3 Zrotation Xrotation Yrotation
        JOINT LeftToeBase
        {
          OFFSET 12.7242 0 0
          CHANNELS 3 Zrotation Xrotation Yrotation
          End Site
          {
            OFFSET 0 0 0
          }
        }
      }
    }
  }
  JOINT RightUpLeg
  {
    OFFSET -8.2249 1.95398 -2.59336
    CHANNELS 3 Zrotation Xrotation Yrotation
    JOINT RightLeg
    {
      OFFSET 43.5653 0 0
      CHANNELS 3 Zrotation Xrotation Yrotation
      JOINT RightFoot
      {
        OFFSET 40.6238 0 0
        CHANNELS 3 Zrotation Xrotation Yrotation
        JOINT RightToeBase
        {
          OFFSET 12.7242 0 0
          CHANNELS 3 Zrotation Xrotation Yrotation
          End Site
          {
            OFFSET 0 0 0
          }
        }
      }
    }
  }
  JOINT Spine
  {
    OFFSET 0.165834 0.87714 6.61349
    CHANNELS 3 Zrotation Xrotation Yrotation
    JOINT Spine1
    {
      OFFSET 7.38963 1.71661e-005 0
      CHANNELS 3 Zrotation Xrotation Yrotation
      JOINT Spine2
      {
        OFFSET 11.9445 1.14441e-005 0
        CHANNELS 3 Zrotation Xrotation Yrotation
        JOINT Spine3
        {
          OFFSET 14.7254 4.19617e-005 0
          CHANNELS 3 Zrotation Xrotation Yrotation
          JOINT Spine4
          {
            OFFSET 10.9679 0 0
            CHANNELS 3 Zrotation Xrotation Yrotation
            JOINT RightShoulder
            {
              OFFSET 2.46616 -1.6653 3.69651
              CHANNELS 3 Zrotation Xrotation Yrotation
              JOINT RightArm
              {
                OFFSET 13.0012 0 0
                CHANNELS 3 Zrotation Xrotation Yrotation
                JOINT RightForeArm
                {
                  OFFSET 28.7848 1.62311e-005 0
                  CHANNELS 3 Zrotation Xrotation Yrotation
                  JOINT RightHand
                  {
                    OFFSET 26.5688 1.62095e-005 0
                    CHANNELS 3 Zrotation Xrotation Yrotation
                    End Site
                    {
                      OFFSET 0 0 0
                    }
                  }
                }
              }
            }
            JOINT LeftShoulder
            {
              OFFSET 2.38034 -1.29275 -3.7523
              CHANNELS 3 Zrotation Xrotation Yrotation
              JOINT LeftArm
              {
                OFFSET 16.3182 6.07031e-005 0
                CHANNELS 3 Zrotation Xrotation Yrotation
                JOINT LeftForeArm
                {
                  OFFSET 27.0901 0 0
                  CHANNELS 3 Zrotation Xrotation Yrotation
                  JOINT LeftHand
                  {
                    OFFSET 24.5451 1.51738e-005 0
                    CHANNELS 3 Zrotation Xrotation Yrotation
                    End Site
                    {
                      OFFSET 0 0 0
                    }
                  }
                }
              }
            }
            JOINT Neck
            {
              OFFSET 5.0226 -0.0266342 0
              CHANNELS 3 Zrotation Xrotation Yrotation
              JOINT Head
              {
                OFFSET 6.69364 2.86102e-005 0
                CHANNELS 3 Zrotation Xrotation Yrotation
                End Site
                {
                  OFFSET 0 0 0
                }
              }
            }
          }
        }
      }
    }
  }
}
MOTION
Frames:	9
Frame Time:	0.0416667
69.1253 86.979 35.1485 92.2636 -34.55 103.167 -165.137 40.4484 78.2221 -80.7766 13.2682 -1.25182 80.2117 13.1705 6.11914 22.8196 0.453216 -8.55853 163.665 -5.72112 82.9199 -41.2033 -9.04861 2.06177 75.2518 -9.3969 -1.75773 50.2903 -9.77934 -1.03063 2.88884 8.00617 -90.7598 10.9168 5.40035 -2.0212 -0.744893 5.30616 -2.25745 -23.3696 5.75736 -0.299696 -3.35695 5.75736 -0.299697 92.7917 -16.9746 -106.102 25.6088 -0.746001 -25.7003 -37.6402 -5.46875 -89.1788 -35.6915 6.39697 -32.8492 -83.7249 -46.5193 87.7755 -34.7408 14.5287 51.89 27.7454 -2.49195 -61.4183 12.3969 -8.84137 -61.2725 28.1643 1.34616 2.86194 -13.6103 0.0672461 1.2691 
73.9505 88.5567 39.5619 90.9236 -31.6296 102.97 -164.605 39.8909 77.9595 -70.5682 12.3668 -3.91934 80.5566 13.5267 5.38832 19.8981 -0.620515 -8.71862 164.336 -12.2186 84.1997 -33.7271 -8.5215 2.9863 66.9256 -3.32759 -0.753699 53.2426 -11.0389 0.522144 3.11613 7.91052 -90.7576 11.1157 5.85124 -2.07539 -0.544112 5.75424 -2.33159 -23.1849 6.20349 -0.214462 -3.17223 6.20349 -0.214466 93.3691 -14.7285 -105.711 28.225 -3.46207 -27.2357 -35.6477 -4.15721 -89.8267 -36.4698 6.24678 -31.1899 -84.6145 -44.191 86.0606 -38.4185 14.3275 56.2261 26.7237 -4.6593 -61.3012 12.3075 -8.70021 -60.939 32.0713 -0.471945 2.73328 -17.2815 -1.7147 0.910521 
79.3512 90.2 44.028 89.374 -28.5263 102.635 -164.638 37.9364 77.9619 -59.9162 11.2451 -6.55355 78.0455 11.8274 5.00199 20.6189 -1.03503 -6.99622 166.358 -17.4743 86.3094 -28.291 -8.35285 2.83393 60.5253 1.55873 0.803727 46.3103 -8.04299 4.06779 3.11883 7.77667 -90.6327 11.3806 5.91102 -1.85483 -0.278552 5.82364 -2.11395 -22.9221 6.19421 0.0140727 -2.9094 6.1942 0.0140663 93.2222 -14.7927 -106.066 29.0097 -7.70859 -27.7204 -41.4886 -4.00843 -91.0778 -38.7779 5.77876 -29.3552 -85.085 -41.1108 84.8158 -42.0749 13.1925 58.8167 25.217 -7.35836 -62.4232 12.2561 -8.5839 -60.73 35.5966 -2.16929 0.570385 -20.2805 -2.46968 0.957948 
84.4752 91.2237 48.2026 86.524 -25.8701 101.877 -165.477 37.2266 77.992 -50.5262 10.3117 -8.26445 75.3188 10.1121 4.77179 18.1643 -1.48318 -8.33328 169.339 -18.4919 89.6165 -28.6806 -11.1024 1.65811 60.9606 1.6743 0.524563 26.7057 -0.330254 5.92074 3.02014 7.54557 -90.4277 11.8334 5.80507 -1.47154 0.17433 5.73469 -1.72637 -22.4654 5.97803 0.347418 -2.45278 5.978 0.3474 92.9656 -15.5457 -106.356 29.3078 -12.2094 -27.6739 -44.4254 -3.25552 -91.7976 -39.6075 5.42061 -28.3598 -85.9172 -39.2704 83.095 -44.6121 12.5677 60.1094 23.6132 -9.19813 -63.4083 13.5553 -9.47775 -61.6276 37.9149 -3.51562 -1.86027 -20.9566 -2.48969 0.38856 
89.3866 91.424 51.824 84.4251 -24.3235 101.941 -166.41 36.4757 78.852 -43.556 10.6495 -9.0659 71.7806 7.6374 4.40515 15.0031 -3.32851 -7.1622 171.162 -17.1503 91.893 -33.9792 -14.7008 0.590746 63.1554 -0.133026 -0.301618 21.2691 1.62912 6.90509 2.90537 7.3911 -90.3874 12.1388 5.59229 -1.39132 0.478867 5.52561 -1.6368 -22.1533 5.75106 0.359306 -2.14069 5.75105 0.359306 93.1157 -15.8973 -105.8 28.5309 -18.6266 -27.9134 -46.0368 -4.93729 -90.3055 -39.7683 5.11938 -27.8726 -87.2003 -40.4041 81.1392 -44.5875 10.0069 59.027 24.2287 -9.1234 -65.1921 15.6138 -10.4382 -60.3647 38.9066 -3.66776 -2.59277 -20.0214 -2.20237 0.0329197 
94.1759 91.2348 55.1366 84.3577 -23.5031 103.079 -168.027 33.4075 80.6705 -38.3336 10.9371 -8.40504 69.5369 5.98853 3.64216 13.6904 -3.50103 -7.88887 170.783 -15.2278 92.0482 -43.3115 -16.1687 0.296867 64.8768 -1.56302 -1.63622 24.2654 -0.0958333 9.09467 2.73682 7.3787 -90.4585 12.1625 5.22322 -1.49491 0.500954 5.15239 -1.72389 -22.1189 5.43038 0.148589 -2.10622 5.43036 0.148579 92.3341 -17.9522 -106.765 28.5566 -23.7012 -24.8418 -44.9156 -8.44134 -87.5256 -40.6979 5.05648 -27.2934 -87.0093 -42.7556 81.926 -43.4114 10.2496 55.1603 25.1993 -6.0881 -63.6331 19.075 -12.3155 -59.4806 39.7417 -3.33722 -3.78554 -20.2864 -1.43147 1.07593 
99.3999 90.977 58.2304 85.7317 -21.8001 104.861 -167.969 28.9843 81.687 -41.2345 13.6305 -8.23863 73.8593 9.95328 6.81262 4.59549 -2.37435 -16.6554 169.217 -13.0233 91.228 -55.0324 -10.973 0.591217 66.7611 -2.39281 -2.55358 20.1486 1.60406 8.57897 2.42428 7.5256 -90.6186 11.8631 4.52991 -1.71758 0.198638 4.44993 -1.9156 -22.3993 4.83622 -0.273802 -2.38661 4.83624 -0.27379 91.4803 -19.9821 -107.834 30.334 -28.7734 -19.516 -42.5345 -14.2138 -83.7915 -45.1645 4.618 -23.9238 -87.0157 -44.8132 82.3008 -41.8209 9.95814 48.5018 27.066 -1.69733 -61.3881 21.5118 -13.6572 -58.719 38.7967 -2.36676 -5.01021 -19.2512 -0.0408201 1.73744 
104.448 90.3243 61.2466 87.3535 -19.9837 105.84 -168.096 22.3461 82.5674 -42.5731 14.3297 -7.58471 84.9593 17.1852 3.14893 -7.60415 -9.42163 -13.4341 167.823 -8.42165 90.8782 -69.6277 -1.38757 0.00452393 69.6181 -3.5878 -3.12907 16.9135 3.03967 8.07769 2.03971 7.70623 -90.6496 11.4926 3.75452 -1.67749 -0.174203 3.67704 -1.84126 -22.7518 4.08484 -0.469886 -2.73914 4.08483 -0.469897 90.7515 -22.2976 -108.413 33.7812 -24.4896 -12.5924 -40.063 -17.0607 -81.2293 -42.4409 5.13875 -26.5865 -87.1613 -46.6326 82.4023 -40.0359 9.90285 41.149 25.6374 0.688166 -60.3004 22.6779 -13.7882 -56.9064 35.8643 -1.62381 -7.38306 -16.6969 1.51612 2.80512 
108.752 89.4455 63.9691 86.9817 -17.3087 104.391 -169.009 17.9573 81.4461 -43.8549 16.3271 -6.63952 90.142 21.6568 3.78068 -4.26523 -12.2413 -7.28612 166.555 -0.237778 89.7294 -84.2255 6.24769 -1.2774 72.0686 -5.12345 -4.15145 15.1559 4.26159 6.5461 1.51083 7.72397 -90.435 11.4422 2.80291 -1.15061 -0.226324 2.74958 -1.27293 -22.7853 3.01905 -0.254317 -2.77268 3.01906 -0.254317 90.4544 -25.7342 -107.543 35.408 -21.3663 -5.64683 -39.4693 -20.2289 -79.3834 -40.0886 4.54931 -26.2165 -87.3488 -49.1993 82.5646 -36.3968 12.1626 32.1009 23.6066 1.54095 -59.0472 21.3209 -13.0121 -57.0332 33.5705 -1.12693 -9.59778 -14.5793 2.78859 3.39025 
